<svg width="981" height="257" viewBox="0 0 981 257" fill="none" xmlns="http://www.w3.org/2000/svg">
<rect width="981" height="257" fill="white"/>
<path d="M194.656 109.57C194.179 108.589 192.915 107.791 191.844 107.791H189.666C188.599 107.791 187.346 108.6 186.883 109.589L169.623 146.519C169.142 147.497 169.663 148.194 170.733 148.194H174.722C176.295 148.194 177.016 147.463 177.443 146.564C177.872 145.665 178.819 143.71 179.001 143.315C179.246 142.774 180.007 142.446 181.074 142.446L199.646 142.457C200.717 142.461 201.405 142.666 201.722 143.315C201.93 143.736 202.877 145.493 203.343 146.452C203.813 147.411 204.603 148.198 206.137 148.198H211.924C212.995 148.198 213.461 147.366 213.079 146.594C212.7 145.814 194.656 109.57 194.656 109.57ZM183.751 136.738C182.68 136.738 182.178 135.921 182.629 134.933L189.429 120.011C189.881 119.019 190.613 119.023 191.054 120.019L197.676 134.94C198.116 135.936 197.603 136.75 196.535 136.75L183.751 136.738ZM328.026 109.854V146.493C328.026 147.5 328.9 148.194 329.971 148.194H334.688C335.758 148.194 336.633 147.497 336.633 146.4V109.783C336.633 108.686 335.941 107.791 334.873 107.791H329.971C328.904 107.787 328.026 108.462 328.026 109.854ZM248.988 132.803C248.373 131.908 248.711 130.915 249.735 130.602C249.735 130.602 253.81 129.352 255.763 127.562C257.715 125.764 258.695 123.171 258.695 119.791C258.695 117.579 258.316 115.722 257.566 114.211C256.815 112.704 255.737 111.469 254.335 110.525C252.933 109.578 251.257 108.88 249.301 108.444C247.345 108.011 244.705 107.884 244.705 107.884C243.634 107.836 241.886 107.795 240.818 107.795H221.23C220.163 107.795 219.285 108.69 219.285 109.787V146.404C219.285 147.5 220.159 148.198 221.23 148.198H225.867C226.938 148.198 227.812 147.5 227.812 146.404C227.812 146.404 227.815 131.84 227.823 131.84C227.83 131.84 227.837 131.833 227.837 131.822C227.837 131.811 236.623 131.799 236.623 131.799C237.69 131.799 239.07 132.531 239.689 133.43L248.81 146.583C249.658 147.747 250.463 148.202 251.534 148.202H257.591C258.662 148.202 258.83 147.168 258.458 146.631C258.094 146.09 248.988 132.803 248.988 132.803ZM245.298 125.365C244.097 125.648 242.745 125.704 242.745 125.704C241.678 125.752 239.93 125.79 238.859 125.79H229.779C228.708 125.79 227.834 124.894 227.834 123.798V116.378C227.834 115.281 228.708 114.386 229.779 114.386H238.859C239.93 114.386 241.678 114.427 242.745 114.472C242.745 114.472 244.097 114.528 245.298 114.811C246.5 115.095 247.451 115.49 248.147 116.001C248.846 116.516 249.345 117.12 249.647 117.811C249.946 118.504 250.095 119.258 250.095 120.082C250.095 120.903 249.942 121.66 249.647 122.354C249.345 123.048 248.846 123.652 248.147 124.163C247.451 124.686 246.5 125.085 245.298 125.365ZM385.938 107.787C384.867 107.787 384.004 108.511 384.004 109.563L384.015 132.986C384.015 134.082 383.411 134.332 382.667 133.545L359.768 109.22C359.025 108.432 357.936 107.787 356.472 107.787H352.167C350.812 107.787 350.218 108.526 350.218 109.276V146.728C350.218 147.474 350.914 148.187 351.985 148.187H356.297C357.364 148.187 358.115 147.59 358.115 146.583C358.115 146.075 358.137 121.906 358.137 121.906C358.137 120.81 358.741 120.56 359.481 121.351L383.356 146.773C384.113 147.549 385.035 148.183 386.674 148.183H389.916C390.986 148.183 391.861 147.288 391.861 146.191V109.768C391.861 108.671 390.986 107.776 389.916 107.776H385.938V107.787ZM292.575 130.628C292.055 131.587 291.202 131.583 290.689 130.624L279.496 109.574C279.019 108.597 278.046 107.795 276.684 107.795H270.612C269.542 107.795 268.667 108.69 268.667 109.787V146.359C268.667 147.452 269.37 148.202 270.612 148.202H274.386C275.457 148.202 276.229 147.512 276.229 146.452C276.229 145.945 276.243 119.855 276.283 119.855C276.324 119.855 290.255 146.445 290.255 146.445C290.758 147.411 291.996 147.415 292.513 146.452C292.513 146.452 306.558 119.929 306.598 119.929C306.642 119.929 306.627 145.691 306.627 146.452C306.627 147.508 307.454 148.202 308.525 148.202H312.87C313.941 148.202 314.815 147.657 314.815 146.21V109.787C314.815 108.69 313.941 107.795 312.87 107.795H307.05C305.564 107.795 304.671 108.57 304.14 109.522L292.575 130.628ZM120 127.953C120 147.683 139.705 148.683 143.657 148.683C156.733 148.683 162.258 145.064 162.487 144.908C163.307 144.434 164.301 143.479 164.301 141.689V128.073C164.301 126.819 163.303 125.797 162.079 125.797H145.653C144.425 125.797 143.62 126.819 143.62 128.073V129.483C143.62 130.74 144.425 131.766 145.653 131.766H155.155C156.073 131.766 156.816 132.531 156.816 133.467C156.816 133.467 156.805 139.435 156.805 139.816C154.93 140.603 146.377 143.158 139.508 141.48C129.543 139.04 128.767 130.617 128.767 128.095C128.767 125.98 129.386 115.375 141.624 114.3C151.531 113.431 158.055 117.527 158.12 117.568C159.286 118.187 160.491 117.747 161.14 116.483C161.143 116.471 162.374 113.916 162.374 113.916C162.888 112.864 162.717 111.775 161.46 110.906C161.376 110.857 154.431 107 143.657 107C120.663 107.004 120 125.812 120 127.953ZM401.502 139.786C403.982 139.786 406 141.853 406 144.393C406 146.933 403.982 149 401.502 149C399.021 149 397 146.933 397 144.393C397 141.856 399.021 139.786 401.502 139.786ZM401.513 148.314C403.582 148.314 405.14 146.605 405.14 144.397C405.14 142.188 403.582 140.476 401.513 140.476C399.418 140.476 397.859 142.188 397.859 144.397C397.859 146.605 399.418 148.314 401.513 148.314ZM399.783 141.689H401.8C403.01 141.689 403.607 142.188 403.607 143.207C403.607 144.076 403.072 144.703 402.248 144.703L403.745 147.09H402.835L401.363 144.703H400.642V147.09H399.783V141.689ZM400.642 144.013H401.666C402.325 144.013 402.751 143.875 402.751 143.169C402.751 142.554 402.216 142.379 401.666 142.379H400.642V144.013Z" fill="black"/>
<path d="M766.447 63.1975C755.708 63.8034 746.049 66.4549 736.539 72.1455L741.953 78.0128C747.832 74.6573 754.303 72.3123 761.085 71.1374C762.947 68.5521 764.803 66.3077 766.447 63.1975Z" fill="#A66953"/>
<path d="M828.199 179.801L821.777 173.407C829.057 164.846 833.86 154.888 836.183 144.483L827.992 144.5C824.841 156.244 818.289 166.276 809.633 173.745L827.156 191.193C829.989 188.347 831.044 182.63 828.199 179.797V179.801Z" fill="#A66953"/>
<path d="M720.22 158.83C714.379 148.812 711.463 137.053 712.363 124.904L702.917 124.924L687.641 124.956C687.65 128.971 690.945 133.759 694.96 133.752L702.878 133.734C703.547 144.961 706.981 156.048 713.212 165.864L720.22 158.827V158.83Z" fill="#A66953"/>
<path d="M768.819 196.003C768.294 191.254 767.965 188.855 767.779 187.658C761.024 187.342 756.442 186.231 756.442 186.231C744.418 183.148 734.158 176.515 726.549 167.699L709.102 185.223C711.947 188.056 717.664 189.11 720.498 186.265L726.019 180.722C734.847 188.382 745.203 193.366 756.017 195.684C760.56 196.57 764.872 196.987 768.927 197.058C768.895 196.707 768.858 196.356 768.819 196.003Z" fill="#A66953"/>
<path d="M792.735 184.084C791.246 187.18 789.541 190.852 787.805 194.847C800.101 191.671 807.275 186.211 807.275 186.211L800.986 179.949C798.32 181.658 795.543 183.015 792.735 184.084Z" fill="#A66953"/>
<path d="M706.691 106.846C705.906 109.046 705.232 111.276 704.68 113.532L714.337 113.51C714.761 111.968 715.247 110.454 715.786 108.973C713.424 108.411 710.174 107.646 706.691 106.846Z" fill="#A66953"/>
<path d="M720.001 84.5099C714.387 90.7574 710.148 97.8069 707.273 105.264C710.602 105.666 713.93 106.09 716.751 106.492C720.325 97.9001 725.815 90.4704 732.599 84.6179L726.305 78.3508L715.076 67.1707C712.243 70.016 711.188 75.7336 714.034 78.5666L720.004 84.5124L720.001 84.5099Z" fill="#A66953"/>
<path d="M764.697 70.7009C765.063 70.2373 765.46 69.7025 765.885 69.0771C766.395 68.1425 767.624 65.8687 769.13 62.9792C759.748 63.2809 747.576 65.2874 736.531 72.1456L741.945 78.0128C741.945 78.0128 750.625 72.2682 764.697 70.7009Z" fill="#A66953"/>
<path d="M792.091 73.5316C800.382 76.556 809.308 83.2842 815.681 90.6697L833.128 73.1465C830.282 70.3135 824.565 69.2587 821.732 72.104L814.925 78.9402C807.871 72.7222 798.802 68.2261 789.984 65.4568C790.983 68.2874 791.687 70.988 792.089 73.5316H792.091Z" fill="#A66953"/>
<path d="M833.184 105.001C831.636 101.025 829.701 97.1668 827.368 93.4875L821.766 99.1144C822.909 101.037 823.941 103.027 824.861 105.07C827.557 105.065 830.311 105.036 833.181 105.001H833.184Z" fill="#A66953"/>
<path d="M847.271 124.612L837.619 124.634C837.187 118.791 836 112.998 834.064 107.408C831.327 107.628 828.698 107.849 826.117 108.08C829.171 116.012 830.535 124.678 829.865 133.55L837.709 133.533C837.709 133.504 837.709 133.474 837.712 133.445L854.595 133.408C854.588 129.393 851.291 124.605 847.276 124.612H847.271Z" fill="#A66953"/>
<path d="M813.998 126.385C812.657 125.014 811.062 123.81 809.583 122.689C808.016 121.502 806.409 120.364 804.78 119.262C804.766 119.253 804.484 119.059 804.484 119.061C806.154 116.79 815.259 113.628 815.259 113.628C822.264 110.476 864.498 105.929 874.01 104.933C875.219 104.808 876.311 104.638 877 103.638C840.048 103.331 817.153 101.793 806.843 100.628C802.252 100.108 798.111 97.1474 795.482 93.3479C795.464 93.3258 795.45 93.3013 795.433 93.2792C794.672 92.1779 793.838 91.1084 792.933 90.1199L785.624 81.6232C788.587 76.4869 788.094 74.8067 788.094 74.8067C787.436 70.0261 785.611 65.1719 783.784 61.2473C781.75 56.2287 779.594 52.7187 779.555 52.6574L779.146 52L778.824 52.704C775.314 60.3839 770.487 69.2927 769.427 71.2329C765.348 77.3037 762.704 77.473 762.704 77.473C759.346 78.0666 757.568 79.6462 757.568 79.6462C756.579 80.436 752.037 83.794 752.037 83.794C750.457 85.1774 744.727 88.734 744.727 88.734L738.305 93.0462C731.489 97.557 727.638 106.917 727.638 106.917C718.896 105.772 695.461 102.671 687.188 101.577C685.314 101.329 683.428 101.896 682 103.132C708.29 106.959 725.367 113.035 725.367 113.035C722.637 125.245 724.383 132.182 725.541 135.059C725.85 135.827 726.291 136.528 726.779 137.195C727.827 138.635 727.638 139.805 727.638 139.805V149.482C721.751 154.561 735.215 168.025 735.215 168.025C734.908 166.953 734.503 164.304 734.334 163.164C734.268 162.705 734.285 162.234 734.447 161.8C734.832 160.77 735.647 160.414 736.429 160.336C737.427 160.237 738.224 160.404 739.122 160.853C742.907 162.737 745.414 169.58 746.074 171.604C746.206 172.006 746.289 172.421 746.368 172.838C747.094 176.726 754.705 180.307 754.705 180.307C754.298 179.154 753.982 177.964 753.817 176.753C753.545 174.739 753.506 171.648 756.211 171.15C764.401 169.647 770.033 179.281 771.596 185.544C771.939 186.915 772.511 191.722 772.932 195.544C773.244 198.37 773.389 201.212 773.32 204.053C773.094 213.17 774.294 220.215 774.294 220.215C779.955 198.384 793.978 172.404 793.978 172.404C801.739 155.511 821.877 139.805 821.877 139.805L810.319 140.892C805.578 141.09 800.638 146.028 800.638 146.028L788.486 158.489C785.153 162.055 781.596 161.935 780.026 161.653C779.379 161.535 778.721 161.471 778.066 161.417C774.843 161.16 773.325 159.379 772.611 157.664C771.971 156.129 772.076 154.395 772.79 152.894C773.374 151.665 773.374 151.042 773.374 151.042C773.968 143.217 771.233 139.803 771.233 139.803C770.637 138.878 769.795 137.07 769.246 135.839C768.672 134.551 769.064 133.018 770.22 132.211C770.237 132.199 770.254 132.189 770.271 132.177C771.034 131.662 771.941 131.404 772.864 131.357C776.182 131.196 789.708 131.083 818.877 137.247C818.45 134.053 817.305 130.666 815.416 128.048C814.994 127.465 814.516 126.91 813.998 126.383V126.385ZM801.43 111.06C799.092 111.489 796.764 111.999 794.454 112.554C792.283 113.076 790.115 113.616 787.998 114.327C786.71 114.761 785.42 115.348 784.171 115.931C783.539 116.228 782.857 116.559 782.192 116.839C781.765 117.018 780.804 117.231 780.804 117.835C780.715 118.198 780.939 118.544 781.282 118.622C787.157 119.974 793.063 119.824 798.768 121.794C802.933 123.234 812.37 127.033 813.765 131.914C805.296 127.497 795.087 126.95 785.589 125.929C782.607 125.608 779.636 125.184 776.695 124.59C773.992 124.045 770.848 123.557 768.37 122.301C766.388 121.296 765.52 119.311 764.47 117.472C763.192 115.232 761.662 113.209 759.842 111.676C761.659 114.17 762.106 117.209 762.079 119.056C761.931 130.087 746.287 139.599 739.628 127.941C739.48 127.683 739.341 127.423 739.208 127.158C739.208 127.158 736.922 133.185 740.329 136.543C740.329 136.543 742.196 138.868 745.399 138.949C746.152 138.969 746.905 139.003 747.648 139.126C749.699 139.467 753.498 140.166 754.703 140.843C758.559 143.006 761.514 147.286 762.167 151.657C762.814 155.996 765.147 159.901 768.699 162.477C773.185 165.732 776.815 170.696 777.097 176.233C777.483 183.76 775.412 191.686 774.561 199.174C774.667 195.321 774.333 191.399 773.715 187.602C773.215 184.535 772.488 181.46 771.24 178.602C769.788 175.276 766.163 170.311 762.77 168.8C762.277 168.582 761.728 168.364 761.24 168.214C761.24 168.214 747.597 166.561 744.83 156.485C744.83 156.485 744.232 161.65 745.122 165.899C744.972 165.477 744.82 165.07 744.663 164.684C743.64 162.165 741.869 160.022 739.544 158.611C737.361 157.287 734.619 157.24 733.289 159.369C733.289 159.369 730.353 153.207 733.77 152.158C732.328 148.312 732.551 146.582 732.102 142.888C731.656 139.204 730.503 136.359 728.32 133.457C727.677 132.601 727.162 131.657 726.806 130.649C725.833 127.887 724.56 122.319 726.358 114.894C726.539 114.141 727.385 113.761 728.072 114.116C732.455 116.39 746.321 123.624 748.477 125.284C748.477 125.284 756.582 126.074 757.666 119.061C757.666 119.061 758.259 117.101 756.606 115.24C756.224 114.81 755.865 114.362 755.576 113.866C754.933 112.77 754.011 110.883 754.011 109.083C747.325 113.133 734.06 111.943 734.06 111.943C731.303 111.796 728.342 111.394 725.83 110.979C722.887 110.493 719.985 109.819 717.13 108.953C712.227 107.464 696.263 104.072 689.346 102.872C689.346 102.872 722.72 107.626 726.321 108.014C728.766 108.276 733.024 108.865 738.303 109.331C738.303 109.331 738.955 109.387 739.917 109.453C739.917 109.453 746.751 109.843 748.89 108.703C747.192 108.762 740.189 108.953 736.144 108.161C735.98 108.129 735.894 107.95 735.965 107.8C736.581 106.488 739.345 101.204 744.526 99.9951C748.271 99.1219 752.208 97.6232 754.825 94.8049C756.864 92.6071 758.235 89.8501 760.33 87.7038C764.163 83.7719 770.406 82.0574 775.545 83.9927C771.176 84.081 767.19 86.0531 764.085 89.129C760.982 92.2048 758.728 96.1589 758.6 100.527C761.384 96.7157 764.676 94.2653 770.823 93.6128C775.515 93.1149 780.274 94.1107 784.824 95.369C789.57 101.182 793.326 103.441 801.825 104.41C821.109 106.61 833.604 104.344 860.99 105.055C833.057 107.589 822.367 107.901 801.425 111.062L801.43 111.06Z" fill="#A66953"/>
<path d="M787.754 108.323C786.5 108.283 785.257 107.93 784.17 107.302C783.856 107.121 783.549 106.912 783.341 106.615C783.132 106.319 783.039 105.921 783.181 105.59C783.397 105.087 784.02 104.928 784.56 104.847C785.674 104.683 786.799 104.589 787.925 104.567C784.18 104.113 782.487 103.741 779.723 104.538C779.056 104.729 778.29 105.095 778.209 105.784C778.163 106.181 778.379 106.571 778.678 106.834C778.98 107.096 779.357 107.248 779.733 107.386C782.394 108.359 784.928 108.568 787.754 108.32V108.323Z" fill="#A66953"/>
</svg>
