<svg id="manual_Layer_1" version="1.1" xmlns="http://www.w3.org/2000/svg" xmlns:xlink="http://www.w3.org/1999/xlink" x="0" y="0" viewBox="0 0 100 100" xml:space="preserve"><g id="Audiobooks_1_"><defs><path id="manual_SVGID_21_" d="M0 3.2h100v93.5H0z"></path></defs><clipPath id="manual_SVGID_2_"><use xlink:href="#manual_SVGID_21_" overflow="visible"></use></clipPath><g clip-path="url(#manual_SVGID_2_)"><defs><path id="manual_SVGID_23_" d="M0 3.2h100v93.5H0z"></path></defs><clipPath id="manual_SVGID_4_"><use xlink:href="#manual_SVGID_23_" overflow="visible"></use></clipPath><path d="M50 17.6v67m39.8-71.3h8.8v69.1H72.1c-8.8 0-15.5 4.3-15.5 13H43.4c0-8.6-6.6-13-15.5-13H1.4V13.3h8.8m39.9 73.4c0-8.6 4.4-13 13.2-13h26.5V4.6H63.3C54.4 4.6 50 9 50 17.6c0-8.6-4.4-13-13.3-13H10.2v69.1h26.5c8.9.1 13.4 4.4 13.4 13z" clip-path="url(#manual_SVGID_4_)" fill="none" stroke="#231f20" stroke-width="2.778" stroke-linecap="round" stroke-linejoin="round" stroke-miterlimit="10"></path></g></g></svg>