<svg id="support_Layer_1" version="1.1" xmlns="http://www.w3.org/2000/svg" x="0" y="0" viewBox="0 0 100 100" xml:space="preserve"><path d="M20.8 45.2l-6.1 17.4 19.4-12c2.3.4 4.5.6 6.7.6h1.4c-1-1.1-1.8-2.2-2.5-3.4-1.8-.1-3.7-.3-5.6-.6l-.6-.2-12.4 7.7 3.8-10.9-1.2-.7c-6.8-4.3-10.8-10.6-10.8-17.5 0-12.2 12.5-22.2 27.9-22.2 10.6 0 19.9 4.8 24.6 11.8 1.4.1 2.8.2 4.2.4C64.8 6.4 53.7 0 40.8 0 23.6 0 9.5 11.5 9.5 25.6c0 7.7 4.1 14.7 11.3 19.6z"></path><path d="M41.8 38.1c0 10.1 10 18.3 22.3 18.3 2.3 0 4.6-.3 6.8-.9l16.5 7.2-6.8-12.4c3.7-3.4 5.7-7.7 5.7-12.2 0-10.1-10-18.3-22.3-18.3S41.8 28 41.8 38.1zm41.1 0c0 4-1.9 7.7-5.5 10.5l-1.1.9 3.4 6.2-8.6-3.7-.6.2c-2.1.6-4.3.9-6.5.9-10.4 0-18.9-6.7-18.9-14.9S53.6 23.3 64 23.3s18.9 6.6 18.9 14.8z"></path><circle cx="53.4" cy="38.8" r="2.5"></circle><circle cx="64.1" cy="38.8" r="2.5"></circle><circle cx="74.8" cy="38.8" r="2.5"></circle><path d="M29.2 100v-9.3c0-1.1-.9-2-2-2h-5.8v3.4h4.4v7.9h3.4zM5 90.7v9.3h3.4v-7.9h4.4v-3.4H7c-1.1 0-2 .9-2 2zM11.7 85.1c1.5 1.1 3.4 1.7 5.4 1.7s3.9-.6 5.4-1.7c2.4-1.7 4-4.5 4-7.6 0-5.2-4.2-9.4-9.4-9.4s-9.4 4.2-9.4 9.4c0 3.1 1.6 5.9 4 7.6zm5.4-13.6c3.3 0 6 2.7 6 6s-2.7 6-6 6-6-2.7-6-6 2.7-6 6-6zM95 100v-9.3c0-1.1-.9-2-2-2h-5.8v3.4h4.4v7.9H95zM78.6 88.7h-5.8c-1.1 0-2 .9-2 2v9.3h3.4v-7.9h4.4v-3.4zM92.3 77.5c0-5.2-4.2-9.4-9.4-9.4s-9.4 4.2-9.4 9.4c0 3.2 1.6 6 4 7.6 1.5 1.1 3.4 1.7 5.4 1.7 2 0 3.9-.6 5.4-1.7 2.4-1.7 4-4.5 4-7.6zm-9.4 5.9c-3.3 0-6-2.7-6-6s2.7-6 6-6 6 2.7 6 6c0 3.4-2.7 6-6 6z"></path></svg>